<svg width="37" height="44" viewBox="0 0 37 44" fill="none" xmlns="http://www.w3.org/2000/svg">
<path d="M19.12 22.81C18.78 22.93 18.22 22.93 17.88 22.81C14.98 21.82 8.5 17.69 8.5 10.69C8.5 7.59998 10.99 5.09998 14.06 5.09998C15.88 5.09998 17.49 5.97998 18.5 7.33998C19.51 5.97998 21.13 5.09998 22.94 5.09998C26.01 5.09998 28.5 7.59998 28.5 10.69C28.5 17.69 22.02 21.82 19.12 22.81Z" stroke="#667085" stroke-width="1.5" stroke-linecap="round" stroke-linejoin="round"/>
<path d="M2.85369 38L2.85369 30.7273H7.36364V31.6719H3.95099V33.8878H7.04048L7.04048 34.8288H3.95099L3.95099 38H2.85369ZM10.1957 38.1207C9.85002 38.1207 9.53752 38.0568 9.25817 37.929C8.97881 37.7988 8.75746 37.6106 8.59411 37.3643C8.43312 37.1181 8.35263 36.8163 8.35263 36.4588C8.35263 36.151 8.41181 35.8977 8.53018 35.6989C8.64856 35.5 8.80836 35.3426 9.00959 35.2266C9.21082 35.1106 9.43572 35.023 9.6843 34.9638C9.93288 34.9046 10.1862 34.8596 10.4442 34.8288C10.771 34.791 11.0361 34.7602 11.2397 34.7365C11.4433 34.7105 11.5913 34.669 11.6836 34.6122C11.7759 34.5554 11.8221 34.4631 11.8221 34.3352V34.3104C11.8221 34.0002 11.7345 33.7599 11.5593 33.5895C11.3865 33.419 11.1284 33.3338 10.7852 33.3338C10.4277 33.3338 10.146 33.4131 9.93999 33.5717C9.73639 33.728 9.59553 33.902 9.5174 34.0938L8.51953 33.8665C8.6379 33.535 8.81072 33.2675 9.038 33.0639C9.26764 32.858 9.53161 32.7088 9.8299 32.6165C10.1282 32.5218 10.4419 32.4744 10.771 32.4744C10.9888 32.4744 11.2196 32.5005 11.4634 32.5526C11.7096 32.6023 11.9393 32.6946 12.1523 32.8295C12.3678 32.9645 12.5442 33.1574 12.6815 33.4084C12.8188 33.657 12.8874 33.9801 12.8874 34.3778V38H11.8505V37.2543H11.8079C11.7392 37.3916 11.6362 37.5265 11.4989 37.6591C11.3616 37.7917 11.1853 37.9018 10.9698 37.9893C10.7544 38.0769 10.4963 38.1207 10.1957 38.1207ZM10.4265 37.2685C10.7201 37.2685 10.971 37.2105 11.1793 37.0945C11.39 36.9785 11.5498 36.8269 11.6587 36.6399C11.77 36.4505 11.8256 36.2481 11.8256 36.0327V35.3295C11.7878 35.3674 11.7144 35.4029 11.6055 35.4361C11.4989 35.4669 11.377 35.4941 11.2397 35.5178C11.1024 35.5391 10.9686 35.5592 10.8384 35.5781C10.7082 35.5947 10.5993 35.6089 10.5117 35.6207C10.3058 35.6468 10.1175 35.6906 9.94709 35.7521C9.779 35.8137 9.64406 35.9025 9.54226 36.0185C9.44283 36.1321 9.39311 36.2836 9.39311 36.473C9.39311 36.7358 9.49018 36.9347 9.6843 37.0696C9.87843 37.2022 10.1258 37.2685 10.4265 37.2685ZM18.7725 32.5455L16.7946 38H15.6582L13.6767 32.5455H14.8166L16.198 36.7429H16.2548L17.6326 32.5455H18.7725ZM21.8825 38.1101C21.3711 38.1101 20.9248 37.9929 20.5437 37.7585C20.1625 37.5241 19.8666 37.1963 19.6559 36.7749C19.4452 36.3535 19.3398 35.861 19.3398 35.2976C19.3398 34.7318 19.4452 34.237 19.6559 33.8132C19.8666 33.3894 20.1625 33.0604 20.5437 32.826C20.9248 32.5916 21.3711 32.4744 21.8825 32.4744C22.3938 32.4744 22.8401 32.5916 23.2212 32.826C23.6024 33.0604 23.8983 33.3894 24.109 33.8132C24.3197 34.237 24.4251 34.7318 24.4251 35.2976C24.4251 35.861 24.3197 36.3535 24.109 36.7749C23.8983 37.1963 23.6024 37.5241 23.2212 37.7585C22.8401 37.9929 22.3938 38.1101 21.8825 38.1101ZM21.886 37.2188C22.2174 37.2188 22.4921 37.1312 22.7099 36.956C22.9277 36.7808 23.0887 36.5476 23.1928 36.2564C23.2994 35.9652 23.3526 35.6444 23.3526 35.294C23.3526 34.946 23.2994 34.6264 23.1928 34.3352C23.0887 34.0417 22.9277 33.8061 22.7099 33.6286C22.4921 33.451 22.2174 33.3622 21.886 33.3622C21.5522 33.3622 21.2752 33.451 21.055 33.6286C20.8372 33.8061 20.6751 34.0417 20.5685 34.3352C20.4644 34.6264 20.4123 34.946 20.4123 35.294C20.4123 35.6444 20.4644 35.9652 20.5685 36.2564C20.6751 36.5476 20.8372 36.7808 21.055 36.956C21.2752 37.1312 21.5522 37.2188 21.886 37.2188ZM25.6103 38V32.5455H26.6365V33.4119H26.6934C26.7928 33.1184 26.968 32.8875 27.2189 32.7195C27.4722 32.549 27.7587 32.4638 28.0783 32.4638C28.1446 32.4638 28.2227 32.4661 28.3127 32.4709C28.405 32.4756 28.4772 32.4815 28.5293 32.4886V33.5043C28.4867 33.4924 28.4109 33.4794 28.302 33.4652C28.1931 33.4486 28.0842 33.4403 27.9753 33.4403C27.7244 33.4403 27.5007 33.4936 27.3042 33.6001C27.11 33.7043 26.9561 33.8499 26.8425 34.0369C26.7289 34.2216 26.6721 34.4323 26.6721 34.669V38H25.6103ZM29.4482 38V32.5455H30.5099V38H29.4482ZM29.9844 31.7038C29.7997 31.7038 29.6411 31.6423 29.5085 31.5192C29.3783 31.3937 29.3132 31.2446 29.3132 31.0717C29.3132 30.8965 29.3783 30.7474 29.5085 30.6243C29.6411 30.4988 29.7997 30.4361 29.9844 30.4361C30.169 30.4361 30.3265 30.4988 30.4567 30.6243C30.5893 30.7474 30.6555 30.8965 30.6555 31.0717C30.6555 31.2446 30.5893 31.3937 30.4567 31.5192C30.3265 31.6423 30.169 31.7038 29.9844 31.7038ZM34.4846 32.5455V33.3977H31.5051V32.5455H34.4846ZM32.3042 31.2386H33.3659V36.3984C33.3659 36.6044 33.3967 36.7595 33.4583 36.8636C33.5198 36.9654 33.5991 37.0353 33.6962 37.0732C33.7956 37.1087 33.9033 37.1264 34.0194 37.1264C34.1046 37.1264 34.1792 37.1205 34.2431 37.1087C34.307 37.0968 34.3567 37.0874 34.3922 37.0803L34.584 37.9574C34.5224 37.9811 34.4348 38.0047 34.3212 38.0284C34.2076 38.0545 34.0655 38.0687 33.8951 38.071C33.6157 38.0758 33.3553 38.026 33.1138 37.9219C32.8723 37.8177 32.677 37.6567 32.5279 37.4389C32.3787 37.2211 32.3042 36.9477 32.3042 36.6186V31.2386Z" fill="#858D9D"/>
</svg>
