<svg width="42" height="44" viewBox="0 0 42 44" fill="none" xmlns="http://www.w3.org/2000/svg">
<path d="M31 14C31 19.52 26.52 24 21 24C15.48 24 11 19.52 11 14C11 8.48 15.48 4 21 4C26.52 4 31 8.48 31 14Z" stroke="#667085" stroke-width="1.5" stroke-linecap="round" stroke-linejoin="round"/>
<path d="M24.7089 17.1817L21.6089 15.3317C21.0689 15.0117 20.6289 14.2417 20.6289 13.6117V9.51172" stroke="#667085" stroke-width="1.5" stroke-linecap="round" stroke-linejoin="round"/>
<path d="M2.99529 38L2.99529 30.7273H5.58762C6.15107 30.7273 6.61864 30.8243 6.99032 31.0185C7.36438 31.2126 7.64373 31.4813 7.82839 31.8246C8.01305 32.1655 8.10538 32.5597 8.10538 33.0071C8.10538 33.4522 8.01187 33.844 7.82484 34.1825C7.64018 34.5187 7.36083 34.7803 6.98677 34.9673C6.61509 35.1544 6.14752 35.2479 5.58407 35.2479H3.62029V34.3033H5.48464C5.83976 34.3033 6.12858 34.2524 6.35112 34.1506C6.57602 34.0488 6.74056 33.9008 6.84473 33.7067C6.94889 33.5125 7.00098 33.2794 7.00098 33.0071C7.00098 32.7325 6.94771 32.4946 6.84118 32.2933C6.73701 32.0921 6.57247 31.9382 6.34757 31.8317C6.12503 31.7228 5.83265 31.6683 5.47044 31.6683H4.0926L4.0926 38H2.99529ZM6.58549 34.7188L8.38237 38H7.13237L5.371 34.7188H6.58549ZM9.35538 38V32.5455H10.4172V38H9.35538ZM9.8916 31.7038C9.70694 31.7038 9.54833 31.6423 9.41575 31.5192C9.28554 31.3937 9.22044 31.2446 9.22044 31.0717C9.22044 30.8965 9.28554 30.7474 9.41575 30.6243C9.54833 30.4988 9.70694 30.4361 9.8916 30.4361C10.0763 30.4361 10.2337 30.4988 10.3639 30.6243C10.4965 30.7474 10.5628 30.8965 10.5628 31.0717C10.5628 31.2446 10.4965 31.3937 10.3639 31.5192C10.2337 31.6423 10.0763 31.7038 9.8916 31.7038ZM13.0281 38L11.423 32.5455H12.5203L13.5892 36.5511H13.6425L14.7149 32.5455H15.8122L16.8776 36.5334H16.9308L17.9926 32.5455H19.0899L17.4884 38H16.4053L15.2973 34.0618H15.2156L14.1077 38H13.0281ZM21.6849 38.1207C21.3393 38.1207 21.0268 38.0568 20.7474 37.929C20.4681 37.7988 20.2467 37.6106 20.0834 37.3643C19.9224 37.1181 19.8419 36.8163 19.8419 36.4588C19.8419 36.151 19.9011 35.8977 20.0194 35.6989C20.1378 35.5 20.2976 35.3426 20.4988 35.2266C20.7001 35.1106 20.925 35.023 21.1736 34.9638C21.4221 34.9046 21.6755 34.8596 21.9335 34.8288C22.2602 34.791 22.5254 34.7602 22.729 34.7365C22.9326 34.7105 23.0805 34.669 23.1729 34.6122C23.2652 34.5554 23.3113 34.4631 23.3113 34.3352V34.3104C23.3113 34.0002 23.2238 33.7599 23.0486 33.5895C22.8757 33.419 22.6177 33.3338 22.2744 33.3338C21.9169 33.3338 21.6352 33.4131 21.4292 33.5717C21.2256 33.728 21.0848 33.902 21.0067 34.0938L20.0088 33.8665C20.1272 33.535 20.3 33.2675 20.5273 33.0639C20.7569 32.858 21.0209 32.7088 21.3192 32.6165C21.6175 32.5218 21.9311 32.4744 22.2602 32.4744C22.478 32.4744 22.7088 32.5005 22.9527 32.5526C23.1989 32.6023 23.4285 32.6946 23.6416 32.8295C23.857 32.9645 24.0334 33.1574 24.1707 33.4084C24.308 33.657 24.3767 33.9801 24.3767 34.3778V38H23.3398V37.2543H23.2971C23.2285 37.3916 23.1255 37.5265 22.9882 37.6591C22.8509 37.7917 22.6745 37.9018 22.4591 37.9893C22.2436 38.0769 21.9856 38.1207 21.6849 38.1207ZM21.9157 37.2685C22.2093 37.2685 22.4603 37.2105 22.6686 37.0945C22.8793 36.9785 23.0391 36.8269 23.148 36.6399C23.2593 36.4505 23.3149 36.2481 23.3149 36.0327V35.3295C23.277 35.3674 23.2036 35.4029 23.0947 35.4361C22.9882 35.4669 22.8663 35.4941 22.729 35.5178C22.5916 35.5391 22.4579 35.5592 22.3277 35.5781C22.1975 35.5947 22.0886 35.6089 22.001 35.6207C21.795 35.6468 21.6068 35.6906 21.4363 35.7521C21.2683 35.8137 21.1333 35.9025 21.0315 36.0185C20.9321 36.1321 20.8824 36.2836 20.8824 36.473C20.8824 36.7358 20.9794 36.9347 21.1736 37.0696C21.3677 37.2022 21.6151 37.2685 21.9157 37.2685ZM26.2668 40.0455C26.1082 40.0455 25.9637 40.0324 25.8335 40.0064C25.7033 39.9827 25.6063 39.9567 25.5423 39.9283L25.798 39.0582C25.9922 39.1103 26.165 39.1328 26.3165 39.1257C26.468 39.1186 26.6018 39.0618 26.7178 38.9553C26.8361 38.8487 26.9403 38.6747 27.0303 38.4332L27.1617 38.071L25.1659 32.5455H26.3023L27.6837 36.7784H27.7405L29.1219 32.5455H30.2618L28.0139 38.728C27.9098 39.0121 27.7772 39.2524 27.6162 39.4489C27.4552 39.6477 27.2635 39.7969 27.0409 39.8963C26.8184 39.9957 26.5603 40.0455 26.2668 40.0455ZM32.6908 38.1207C32.3451 38.1207 32.0326 38.0568 31.7533 37.929C31.4739 37.7988 31.2526 37.6106 31.0892 37.3643C30.9282 37.1181 30.8477 36.8163 30.8477 36.4588C30.8477 36.151 30.9069 35.8977 31.0253 35.6989C31.1437 35.5 31.3035 35.3426 31.5047 35.2266C31.7059 35.1106 31.9308 35.023 32.1794 34.9638C32.428 34.9046 32.6813 34.8596 32.9394 34.8288C33.2661 34.791 33.5312 34.7602 33.7348 34.7365C33.9384 34.7105 34.0864 34.669 34.1787 34.6122C34.271 34.5554 34.3172 34.4631 34.3172 34.3352V34.3104C34.3172 34.0002 34.2296 33.7599 34.0544 33.5895C33.8816 33.419 33.6236 33.3338 33.2803 33.3338C32.9228 33.3338 32.6411 33.4131 32.4351 33.5717C32.2315 33.728 32.0906 33.902 32.0125 34.0938L31.0146 33.8665C31.133 33.535 31.3058 33.2675 31.5331 33.0639C31.7628 32.858 32.0267 32.7088 32.325 32.6165C32.6233 32.5218 32.937 32.4744 33.2661 32.4744C33.4839 32.4744 33.7147 32.5005 33.9585 32.5526C34.2048 32.6023 34.4344 32.6946 34.6475 32.8295C34.8629 32.9645 35.0393 33.1574 35.1766 33.4084C35.3139 33.657 35.3825 33.9801 35.3825 34.3778V38H34.3456V37.2543H34.303C34.2343 37.3916 34.1314 37.5265 33.9941 37.6591C33.8567 37.7917 33.6804 37.9018 33.4649 37.9893C33.2495 38.0769 32.9914 38.1207 32.6908 38.1207ZM32.9216 37.2685C33.2152 37.2685 33.4661 37.2105 33.6744 37.0945C33.8852 36.9785 34.045 36.8269 34.1539 36.6399C34.2651 36.4505 34.3208 36.2481 34.3208 36.0327V35.3295C34.2829 35.3674 34.2095 35.4029 34.1006 35.4361C33.9941 35.4669 33.8721 35.4941 33.7348 35.5178C33.5975 35.5391 33.4637 35.5592 33.3335 35.5781C33.2033 35.5947 33.0944 35.6089 33.0068 35.6207C32.8009 35.6468 32.6127 35.6906 32.4422 35.7521C32.2741 35.8137 32.1392 35.9025 32.0374 36.0185C31.9379 36.1321 31.8882 36.2836 31.8882 36.473C31.8882 36.7358 31.9853 36.9347 32.1794 37.0696C32.3735 37.2022 32.6209 37.2685 32.9216 37.2685ZM39.343 32.5455V33.3977H36.3635V32.5455H39.343ZM37.1626 31.2386H38.2243V36.3984C38.2243 36.6044 38.2551 36.7595 38.3167 36.8636C38.3782 36.9654 38.4575 37.0353 38.5546 37.0732C38.654 37.1087 38.7617 37.1264 38.8778 37.1264C38.963 37.1264 39.0376 37.1205 39.1015 37.1087C39.1654 37.0968 39.2151 37.0874 39.2506 37.0803L39.4424 37.9574C39.3808 37.9811 39.2932 38.0047 39.1796 38.0284C39.066 38.0545 38.9239 38.0687 38.7535 38.071C38.4741 38.0758 38.2137 38.026 37.9722 37.9219C37.7307 37.8177 37.5354 37.6567 37.3863 37.4389C37.2371 37.2211 37.1626 36.9477 37.1626 36.6186V31.2386Z" fill="#858D9D"/>
</svg>
