<svg width="15" height="14" viewBox="0 0 15 14" fill="none" xmlns="http://www.w3.org/2000/svg">
<path d="M9.03125 12.9375L8.34375 13.625C8.03125 13.9062 7.5625 13.9062 7.28125 13.625L1.21875 7.53125C0.90625 7.25 0.90625 6.78125 1.21875 6.5L7.28125 0.40625C7.5625 0.125 8.0625 0.125 8.34375 0.40625L9.03125 1.09375C9.34375 1.40625 9.3125 1.875 9.03125 2.1875L5.25 5.75H14.25C14.6562 5.75 15 6.09375 15 6.5V7.5C15 7.9375 14.6562 8.25 14.25 8.25H5.25L9.03125 11.8438C9.3125 12.1562 9.34375 12.625 9.03125 12.9375Z" fill="#000000"/>
</svg>