<svg width="29" height="29" viewBox="0 0 29 29" fill="none" xmlns="http://www.w3.org/2000/svg">
<circle cx="14.5" cy="14.5" r="14.5" fill="#FF7C03"/>
<path d="M17.9062 10.0938C19.1875 10.0938 20.5 9.59375 21.5625 9.09375C22.2188 8.8125 23 9.28125 23 10V17.625C23 17.9375 22.8125 18.25 22.5625 18.4375C21.4375 19.1875 20.2188 19.7188 18.7188 19.7188C16.625 19.7188 15.25 18.625 13.5625 18.625C11.9688 18.625 10.875 18.9375 10 19.3125V22.25C10 22.6875 9.65625 23 9.25 23H8.75C8.3125 23 8 22.6875 8 22.25V10.1875C7.53125 9.875 7.25 9.375 7.25 8.75C7.25 7.78125 8.0625 6.96875 9.0625 7.03125C9.9375 7.0625 10.6875 7.78125 10.7188 8.65625C10.7188 8.6875 10.7188 8.71875 10.7188 8.78125C10.7188 9 10.6875 9.1875 10.625 9.40625C11.2812 9.15625 11.9688 9 12.75 9C14.8438 9 16.2188 10.0938 17.9062 10.0938Z" fill="white"/>
</svg>
