<svg width="37" height="44" viewBox="0 0 37 44" fill="none" xmlns="http://www.w3.org/2000/svg">
<path d="M15.52 3.33821L10.13 7.53821C9.23 8.23821 8.5 9.72821 8.5 10.8582V18.2682C8.5 20.5882 10.39 22.4882 12.71 22.4882H24.29C26.61 22.4882 28.5 20.5882 28.5 18.2782V10.9982C28.5 9.78821 27.69 8.23821 26.7 7.54821L20.52 3.21821C19.12 2.23821 16.87 2.28821 15.52 3.33821Z" stroke="#667085" stroke-width="1.5" stroke-linecap="round" stroke-linejoin="round" fill="#ffffff"/>
<path opacity="0.08" d="M16.2592 5.61808L12.2091 8.77393C11.5329 9.29991 10.9844 10.4195 10.9844 11.2686V16.8364C10.9844 18.5796 12.4045 20.0073 14.1477 20.0073H22.8489C24.5921 20.0073 26.0122 18.5796 26.0122 16.8439V11.3738C26.0122 10.4646 25.4036 9.29991 24.6597 8.78145L20.0161 5.52792C18.9642 4.79155 17.2735 4.82912 16.2592 5.61808Z" fill="#667085"/>
<path d="M18.5 18.4883V15.4883" stroke="#667085" stroke-width="1.5" stroke-linecap="round" stroke-linejoin="round" fill="#ffffff"/>
<path d="M5.22186 36.5L5.22186 29.2273H6.31916V32.3878H9.94487V29.2273H11.0457V36.5H9.94487V33.3288H6.31916V36.5H5.22186ZM14.8561 36.6101C14.3447 36.6101 13.8985 36.4929 13.5173 36.2585C13.1362 36.0241 12.8402 35.6963 12.6295 35.2749C12.4188 34.8535 12.3135 34.361 12.3135 33.7976C12.3135 33.2318 12.4188 32.737 12.6295 32.3132C12.8402 31.8894 13.1362 31.5604 13.5173 31.326C13.8985 31.0916 14.3447 30.9744 14.8561 30.9744C15.3675 30.9744 15.8137 31.0916 16.1949 31.326C16.576 31.5604 16.872 31.8894 17.0827 32.3132C17.2934 32.737 17.3987 33.2318 17.3987 33.7976C17.3987 34.361 17.2934 34.8535 17.0827 35.2749C16.872 35.6963 16.576 36.0241 16.1949 36.2585C15.8137 36.4929 15.3675 36.6101 14.8561 36.6101ZM14.8596 35.7188C15.1911 35.7188 15.4657 35.6312 15.6835 35.456C15.9013 35.2808 16.0623 35.0476 16.1665 34.7564C16.273 34.4652 16.3263 34.1444 16.3263 33.794C16.3263 33.446 16.273 33.1264 16.1665 32.8352C16.0623 32.5417 15.9013 32.3061 15.6835 32.1286C15.4657 31.951 15.1911 31.8622 14.8596 31.8622C14.5258 31.8622 14.2488 31.951 14.0287 32.1286C13.8109 32.3061 13.6487 32.5417 13.5422 32.8352C13.438 33.1264 13.3859 33.446 13.3859 33.794C13.3859 34.1444 13.438 34.4652 13.5422 34.7564C13.6487 35.0476 13.8109 35.2808 14.0287 35.456C14.2488 35.6312 14.5258 35.7188 14.8596 35.7188ZM18.5839 36.5V31.0455H19.6031V31.9332H19.6705C19.7842 31.6326 19.97 31.3982 20.2281 31.2301C20.4861 31.0597 20.7951 30.9744 21.1549 30.9744C21.5195 30.9744 21.8249 31.0597 22.0711 31.2301C22.3197 31.4006 22.5032 31.6349 22.6215 31.9332H22.6784C22.8086 31.642 23.0157 31.41 23.2998 31.2372C23.5839 31.062 23.9224 30.9744 24.3154 30.9744C24.8102 30.9744 25.2139 31.1295 25.5264 31.4396C25.8412 31.7498 25.9987 32.2173 25.9987 32.8423V36.5H24.9369V32.9418C24.9369 32.5724 24.8363 32.3049 24.635 32.1392C24.4338 31.9735 24.1935 31.8906 23.9142 31.8906C23.5685 31.8906 23.2998 31.9972 23.108 32.2102C22.9163 32.4209 22.8204 32.692 22.8204 33.0234V36.5H21.7622V32.8743C21.7622 32.5784 21.6698 32.3404 21.4852 32.1605C21.3005 31.9806 21.0602 31.8906 20.7643 31.8906C20.5631 31.8906 20.3772 31.9439 20.2068 32.0504C20.0387 32.1546 19.9026 32.3002 19.7984 32.4872C19.6966 32.6742 19.6457 32.8909 19.6457 33.1371V36.5H18.5839ZM29.7726 36.6101C29.2352 36.6101 28.7724 36.4953 28.3841 36.2656C27.9983 36.0336 27.7 35.7081 27.4893 35.2891C27.2809 34.8677 27.1768 34.3741 27.1768 33.8082C27.1768 33.2495 27.2809 32.7571 27.4893 32.331C27.7 31.9048 27.9935 31.5722 28.3699 31.3331C28.7487 31.094 29.1914 30.9744 29.6981 30.9744C30.0058 30.9744 30.3041 31.0253 30.593 31.1271C30.8818 31.2289 31.141 31.3887 31.3706 31.6065C31.6003 31.8243 31.7814 32.1072 31.914 32.4553C32.0465 32.8009 32.1128 33.2211 32.1128 33.7159V34.0923H27.7769V33.2969H31.0724C31.0724 33.0175 31.0155 32.7701 30.9019 32.5547C30.7883 32.3369 30.6285 32.1652 30.4225 32.0398C30.2189 31.9143 29.9798 31.8516 29.7052 31.8516C29.4069 31.8516 29.1465 31.925 28.9239 32.0717C28.7037 32.2161 28.5333 32.4055 28.4126 32.6399C28.2942 32.8719 28.235 33.1241 28.235 33.3963V34.0178C28.235 34.3823 28.2989 34.6925 28.4268 34.9482C28.557 35.2038 28.7381 35.3991 28.9701 35.5341C29.2021 35.6667 29.4732 35.733 29.7833 35.733C29.9845 35.733 30.168 35.7045 30.3337 35.6477C30.4994 35.5885 30.6427 35.5009 30.7634 35.3849C30.8841 35.2689 30.9765 35.1257 31.0404 34.9553L32.0454 35.1364C31.9649 35.4323 31.8205 35.6915 31.6121 35.9141C31.4062 36.1342 31.1469 36.3059 30.8344 36.429C30.5243 36.5497 30.1704 36.6101 29.7726 36.6101Z" fill="#667085"/>
</svg>