<svg width="16" height="14" viewBox="0 0 16 14" fill="none" xmlns="http://www.w3.org/2000/svg">
<path d="M15.5312 7.53125L10.2812 12.7812C9.8125 13.25 9 12.9375 9 12.25V9.25H4.75C4.3125 9.25 4 8.9375 4 8.5V5.5C4 5.09375 4.3125 4.75 4.75 4.75H9V1.75C9 1.09375 9.78125 0.75 10.2812 1.21875L15.5312 6.46875C15.8125 6.78125 15.8125 7.25 15.5312 7.53125ZM6 12.625C6 12.8438 5.8125 13 5.625 13H3C1.34375 13 0 11.6562 0 10V4C0 2.34375 1.34375 1 3 1H5.625C5.8125 1 6 1.1875 6 1.375V2.625C6 2.84375 5.8125 3 5.625 3H3C2.4375 3 2 3.46875 2 4V10C2 10.5625 2.4375 11 3 11H5.625C5.8125 11 6 11.1875 6 11.375V12.625Z" fill="#263238"/>
</svg>
