<svg width="37" height="44" viewBox="0 0 37 44" fill="none" xmlns="http://www.w3.org/2000/svg">
<path d="M18.5 14C21.2614 14 23.5 11.7614 23.5 9C23.5 6.23858 21.2614 4 18.5 4C15.7386 4 13.5 6.23858 13.5 9C13.5 11.7614 15.7386 14 18.5 14Z" stroke="#667085" stroke-width="1.5" stroke-linecap="round" stroke-linejoin="round"/>
<path d="M27.09 24C27.09 20.13 23.24 17 18.5 17C13.76 17 9.91 20.13 9.91 24" stroke="#667085" stroke-width="1.5" stroke-linecap="round" stroke-linejoin="round"/>
<path d="M6.93084 38L6.93084 30.7273H9.52317C10.089 30.7273 10.5577 30.8303 10.9294 31.0362C11.3011 31.2422 11.5793 31.5239 11.7639 31.8814C11.9486 32.2365 12.0409 32.6366 12.0409 33.0817C12.0409 33.5291 11.9474 33.9316 11.7604 34.2891C11.5757 34.6442 11.2964 34.9259 10.9223 35.1342C10.5506 35.3402 10.0831 35.4432 9.51962 35.4432H7.73695V34.5128H9.42019C9.77767 34.5128 10.0677 34.4512 10.2902 34.3281C10.5128 34.2027 10.6761 34.0322 10.7803 33.8168C10.8844 33.6013 10.9365 33.3563 10.9365 33.0817C10.9365 32.8071 10.8844 32.5632 10.7803 32.3501C10.6761 32.1371 10.5116 31.9702 10.2867 31.8494C10.0641 31.7287 9.77057 31.6683 9.40598 31.6683H8.02814V38H6.93084ZM13.2421 38V32.5455H14.2684V33.4119H14.3252C14.4246 33.1184 14.5998 32.8875 14.8508 32.7195C15.1041 32.549 15.3905 32.4638 15.7101 32.4638C15.7764 32.4638 15.8546 32.4661 15.9445 32.4709C16.0368 32.4756 16.109 32.4815 16.1611 32.4886V33.5043C16.1185 33.4924 16.0428 33.4794 15.9339 33.4652C15.825 33.4486 15.7161 33.4403 15.6072 33.4403C15.3562 33.4403 15.1325 33.4936 14.936 33.6001C14.7419 33.7043 14.588 33.8499 14.4743 34.0369C14.3607 34.2216 14.3039 34.4323 14.3039 34.669V38H13.2421ZM19.1823 38.1101C18.6709 38.1101 18.2246 37.9929 17.8435 37.7585C17.4623 37.5241 17.1664 37.1963 16.9557 36.7749C16.745 36.3535 16.6396 35.861 16.6396 35.2976C16.6396 34.7318 16.745 34.237 16.9557 33.8132C17.1664 33.3894 17.4623 33.0604 17.8435 32.826C18.2246 32.5916 18.6709 32.4744 19.1823 32.4744C19.6936 32.4744 20.1399 32.5916 20.521 32.826C20.9022 33.0604 21.1981 33.3894 21.4088 33.8132C21.6195 34.237 21.7249 34.7318 21.7249 35.2976C21.7249 35.861 21.6195 36.3535 21.4088 36.7749C21.1981 37.1963 20.9022 37.5241 20.521 37.7585C20.1399 37.9929 19.6936 38.1101 19.1823 38.1101ZM19.1858 37.2188C19.5173 37.2188 19.7919 37.1312 20.0097 36.956C20.2275 36.7808 20.3885 36.5476 20.4926 36.2564C20.5992 35.9652 20.6524 35.6444 20.6524 35.294C20.6524 34.946 20.5992 34.6264 20.4926 34.3352C20.3885 34.0417 20.2275 33.8061 20.0097 33.6286C19.7919 33.451 19.5173 33.3622 19.1858 33.3622C18.852 33.3622 18.575 33.451 18.3548 33.6286C18.137 33.8061 17.9749 34.0417 17.8683 34.3352C17.7642 34.6264 17.7121 34.946 17.7121 35.294C17.7121 35.6444 17.7642 35.9652 17.8683 36.2564C17.9749 36.5476 18.137 36.7808 18.3548 36.956C18.575 37.1312 18.852 37.2188 19.1858 37.2188ZM25.5059 32.5455V33.3977H22.4236V32.5455H25.5059ZM23.2687 38V31.9134C23.2687 31.5724 23.3433 31.2895 23.4925 31.0646C23.6416 30.8374 23.8393 30.6681 24.0855 30.5568C24.3317 30.4432 24.5992 30.3864 24.8881 30.3864C25.1011 30.3864 25.2834 30.4041 25.4349 30.4396C25.5864 30.4728 25.6989 30.5036 25.7723 30.532L25.5237 31.3913C25.474 31.3771 25.4101 31.3606 25.3319 31.3416C25.2538 31.3203 25.1591 31.3097 25.0479 31.3097C24.7898 31.3097 24.6051 31.3736 24.4939 31.5014C24.385 31.6293 24.3305 31.8139 24.3305 32.0554V38H23.2687ZM26.6015 38V32.5455H27.6633V38H26.6015ZM27.1377 31.7038C26.953 31.7038 26.7944 31.6423 26.6618 31.5192C26.5316 31.3937 26.4665 31.2446 26.4665 31.0717C26.4665 30.8965 26.5316 30.7474 26.6618 30.6243C26.7944 30.4988 26.953 30.4361 27.1377 30.4361C27.3224 30.4361 27.4798 30.4988 27.61 30.6243C27.7426 30.7474 27.8089 30.8965 27.8089 31.0717C27.8089 31.2446 27.7426 31.3937 27.61 31.5192C27.4798 31.6423 27.3224 31.7038 27.1377 31.7038ZM30.1535 30.7273V38H29.0917V30.7273H30.1535Z" fill="#858D9D"/>
</svg>
